# xmcd
#
# Track frame offsets:
# 150
# 23348
# 35598
# 65390
# 77673
# 91698
# 123348
# 135273
# 156613
# 190023
# 208905
# 236270
# 249035
# 267503
# 277640
# 303105
#
# Disc length: 4232 seconds
#
#
# Revision: 1
# Processed by: cddbd v1.5PL3 Copyright (c) Steve Scherf et al.
# Submitted via: FreeRIP 2.53 
#
DISCID=bf108610
DTITLE=Livin' Blues - Collection
DYEAR=2002
DGENRE=Blues
TTITLE0=Wang Dang Doodle
TTITLE1=Waitin' On You
TTITLE2=One Night Blues
TTITLE3=Sonny Boy
TTITLE4=Black Panther
TTITLE5=I Came Home At Night
TTITLE6=Crazy Women
TTITLE7=When The Sun Goes Down
TTITLE8=Black Night
TTITLE9=L.B. Boogie
TTITLE10=Hitch-Hikin
TTITLE11=Black Lisa
TTITLE12=Ain't No Use Crying
TTITLE13=Red River Mountain
TTITLE14=You're A Stranger
TTITLE15=Eye To Eye
EXTD=
EXTT0=
EXTT1=
EXTT2=
EXTT3=
EXTT4=
EXTT5=
EXTT6=
EXTT7=
EXTT8=
EXTT9=
EXTT10=
EXTT11=
EXTT12=
EXTT13=
EXTT14=
EXTT15=
PLAYORDER=
